<svg id="svg" version="1.1" xmlns="http://www.w3.org/2000/svg" xmlns:xlink="http://www.w3.org/1999/xlink" width="400" height="134.30504945340968" viewBox="0, 0, 400,134.30504945340968"><g id="svgg"><path id="path0" d="M200.673 27.267 C 200.172 27.401,199.722 27.571,199.673 27.643 C 199.624 27.716,199.330 27.919,199.021 28.096 C 198.270 28.524,197.638 29.141,197.333 29.745 C 197.196 30.017,196.960 30.366,196.809 30.520 C 196.658 30.674,196.479 31.051,196.413 31.358 C 196.346 31.665,196.224 31.960,196.141 32.013 C 195.537 32.399,195.239 56.123,195.833 56.506 C 196.135 56.700,210.575 56.648,210.771 56.452 C 211.167 56.055,210.951 32.633,210.549 32.352 C 210.469 32.296,210.297 31.921,210.167 31.520 C 210.038 31.118,209.854 30.704,209.758 30.600 C 209.662 30.496,209.447 30.167,209.281 29.869 C 208.890 29.170,207.923 28.234,207.313 27.964 C 207.049 27.847,206.833 27.698,206.833 27.632 C 206.833 27.061,202.415 26.798,200.673 27.267 M26.583 28.191 C 25.942 28.273,25.392 28.414,25.361 28.503 C 25.331 28.593,25.202 28.667,25.075 28.667 C 24.674 28.667,23.287 29.190,23.043 29.433 C 22.915 29.561,22.702 29.667,22.571 29.667 C 22.440 29.667,22.200 29.798,22.037 29.958 C 21.873 30.119,21.517 30.363,21.245 30.500 C 20.816 30.716,20.208 31.290,19.267 32.364 C 19.132 32.519,18.885 33.044,18.719 33.531 C 18.553 34.018,18.342 34.470,18.250 34.536 C 18.009 34.708,18.020 98.637,18.261 98.798 C 18.359 98.863,18.572 99.254,18.733 99.667 C 19.041 100.455,21.303 102.833,21.745 102.833 C 21.872 102.833,22.088 102.945,22.225 103.082 C 23.126 103.983,30.440 104.056,31.000 103.170 C 31.046 103.097,31.365 102.920,31.708 102.777 C 32.052 102.634,32.333 102.438,32.333 102.342 C 32.333 102.245,32.433 102.167,32.556 102.167 C 32.835 102.167,34.000 101.016,34.000 100.740 C 34.000 100.628,34.108 100.494,34.241 100.443 C 34.373 100.393,34.576 100.028,34.691 99.634 C 34.806 99.239,34.949 98.879,35.009 98.833 C 35.345 98.574,35.403 95.788,35.489 75.417 C 35.579 53.999,35.595 53.097,35.880 53.417 C 36.855 54.514,37.332 55.096,37.333 55.188 C 37.333 55.246,37.615 55.591,37.958 55.956 C 38.302 56.320,38.771 56.869,39.000 57.175 C 39.229 57.481,39.623 57.935,39.875 58.183 C 40.127 58.431,40.333 58.688,40.333 58.755 C 40.333 58.873,41.177 59.899,41.840 60.589 C 42.020 60.776,42.167 61.003,42.167 61.094 C 42.167 61.185,42.373 61.455,42.625 61.694 C 42.877 61.933,43.271 62.374,43.500 62.675 C 43.729 62.976,44.160 63.500,44.458 63.840 C 44.756 64.179,45.000 64.501,45.000 64.554 C 45.000 64.608,45.169 64.835,45.375 65.059 C 45.581 65.283,46.050 65.823,46.417 66.259 C 46.783 66.695,47.290 67.257,47.542 67.509 C 47.794 67.761,48.000 68.045,48.000 68.141 C 48.000 68.236,48.133 68.412,48.295 68.532 C 48.457 68.652,48.732 68.975,48.906 69.250 C 49.081 69.525,49.361 69.848,49.528 69.968 C 49.696 70.088,49.833 70.264,49.833 70.359 C 49.833 70.455,50.040 70.736,50.292 70.984 C 50.544 71.232,50.938 71.686,51.167 71.992 C 51.396 72.298,51.860 72.842,52.197 73.200 C 52.535 73.558,52.835 73.912,52.864 73.986 C 52.950 74.206,53.888 75.372,54.292 75.761 C 54.498 75.959,54.667 76.190,54.667 76.274 C 54.667 76.357,54.873 76.621,55.125 76.860 C 55.377 77.099,55.771 77.538,56.000 77.834 C 56.229 78.131,56.507 78.468,56.617 78.584 C 56.727 78.699,56.788 78.823,56.751 78.860 C 56.715 78.896,56.906 79.074,57.175 79.255 C 57.445 79.435,57.644 79.650,57.617 79.730 C 57.590 79.811,57.848 80.186,58.189 80.564 C 58.531 80.941,58.965 81.421,59.155 81.631 C 59.345 81.840,59.500 82.072,59.500 82.145 C 59.500 82.218,59.706 82.478,59.958 82.723 C 60.650 83.395,61.014 83.833,60.880 83.833 C 60.813 83.833,60.926 83.950,61.130 84.093 C 61.333 84.235,61.500 84.432,61.500 84.529 C 61.500 84.626,61.777 84.959,62.116 85.269 C 62.455 85.579,62.677 85.833,62.610 85.833 C 62.544 85.833,62.754 86.098,63.078 86.422 C 63.402 86.746,63.667 87.079,63.667 87.163 C 63.667 87.246,63.825 87.426,64.019 87.561 C 64.213 87.697,64.523 88.058,64.709 88.362 C 64.894 88.667,65.185 89.015,65.356 89.134 C 65.527 89.254,65.667 89.430,65.667 89.526 C 65.667 89.621,65.873 89.910,66.125 90.166 C 66.937 90.993,67.833 92.028,67.833 92.139 C 67.833 92.198,68.017 92.435,68.242 92.665 C 69.014 93.455,69.833 94.403,69.833 94.505 C 69.833 94.561,70.174 94.977,70.590 95.429 C 71.006 95.880,71.531 96.451,71.757 96.698 C 71.982 96.944,72.167 97.198,72.167 97.263 C 72.167 97.394,72.680 97.952,74.115 99.380 C 75.558 100.816,75.768 101.000,75.966 101.000 C 76.066 101.000,76.246 101.132,76.366 101.293 C 76.485 101.455,76.901 101.736,77.290 101.918 C 77.678 102.101,77.997 102.302,77.998 102.366 C 77.999 102.430,78.450 102.609,79.000 102.763 C 79.550 102.918,80.000 103.099,80.000 103.166 C 80.000 103.958,89.131 104.012,89.919 103.224 C 90.042 103.101,90.212 103.000,90.296 103.000 C 90.967 103.000,94.000 100.343,94.000 99.755 C 94.000 99.628,94.107 99.417,94.238 99.285 C 94.556 98.968,95.000 96.764,95.000 95.507 C 95.000 94.947,95.074 94.500,95.167 94.500 C 95.277 94.500,95.333 84.583,95.333 65.083 C 95.333 45.583,95.277 35.667,95.167 35.667 C 95.075 35.667,94.999 35.348,94.997 34.958 C 94.994 34.140,94.601 32.340,94.392 32.187 C 94.314 32.130,94.100 31.787,93.917 31.425 C 93.624 30.846,93.107 30.267,92.136 29.430 C 91.981 29.297,91.456 29.052,90.969 28.886 C 90.482 28.719,90.045 28.534,89.999 28.473 C 89.584 27.928,83.248 27.907,82.849 28.449 C 82.794 28.523,82.364 28.715,81.892 28.876 C 80.626 29.307,78.667 31.389,78.667 32.303 C 78.667 32.396,78.588 32.498,78.493 32.530 C 77.896 32.729,77.845 34.686,77.839 57.542 C 77.835 72.288,77.777 79.833,77.667 79.833 C 77.575 79.833,77.500 79.731,77.500 79.607 C 77.500 79.482,77.238 79.126,76.918 78.815 C 76.599 78.504,76.336 78.186,76.335 78.109 C 76.334 78.031,76.127 77.764,75.875 77.516 C 75.623 77.268,75.229 76.818,75.000 76.515 C 74.771 76.213,74.302 75.667,73.958 75.303 C 73.615 74.938,73.333 74.601,73.333 74.554 C 73.333 74.383,72.708 73.680,72.628 73.761 C 72.582 73.807,72.452 73.620,72.339 73.347 C 72.226 73.073,71.953 72.732,71.733 72.588 C 71.513 72.444,71.333 72.248,71.333 72.152 C 71.333 71.982,71.201 71.823,69.841 70.355 C 69.470 69.954,69.167 69.588,69.167 69.542 C 69.167 69.438,68.158 68.237,67.586 67.660 C 67.355 67.428,67.167 67.155,67.167 67.055 C 67.167 66.954,66.979 66.749,66.750 66.599 C 66.521 66.449,66.333 66.248,66.333 66.152 C 66.333 65.982,66.201 65.823,64.841 64.355 C 64.470 63.954,64.166 63.579,64.166 63.522 C 64.165 63.403,63.231 62.300,62.590 61.660 C 62.357 61.428,62.167 61.173,62.167 61.095 C 62.167 61.016,62.014 60.794,61.826 60.601 C 61.200 59.955,60.335 58.918,60.334 58.812 C 60.334 58.754,60.030 58.379,59.659 57.978 C 58.299 56.510,58.167 56.351,58.167 56.181 C 58.167 56.086,57.979 55.885,57.750 55.735 C 57.521 55.585,57.333 55.362,57.333 55.240 C 57.333 55.119,57.196 54.921,57.028 54.801 C 56.861 54.681,56.580 54.358,56.404 54.083 C 56.229 53.808,55.916 53.447,55.709 53.280 C 55.502 53.113,55.333 52.913,55.333 52.837 C 55.333 52.699,54.513 51.737,53.625 50.833 C 53.373 50.576,53.167 50.288,53.167 50.193 C 53.167 50.097,53.030 49.921,52.864 49.801 C 52.697 49.681,52.421 49.344,52.250 49.051 C 52.079 48.758,51.889 48.549,51.828 48.587 C 51.767 48.624,51.612 48.452,51.483 48.203 C 51.355 47.954,51.063 47.551,50.833 47.309 C 49.826 46.241,49.167 45.459,49.167 45.330 C 49.167 45.253,48.979 45.043,48.750 44.863 C 48.521 44.683,48.333 44.471,48.333 44.393 C 48.332 44.255,47.547 43.295,46.840 42.566 C 46.653 42.373,46.500 42.146,46.500 42.061 C 46.500 41.977,46.294 41.711,46.042 41.471 C 45.790 41.232,45.378 40.784,45.127 40.476 C 44.876 40.168,44.446 39.654,44.171 39.333 C 43.897 39.012,43.671 38.686,43.669 38.607 C 43.668 38.529,43.479 38.317,43.250 38.137 C 43.021 37.957,42.833 37.746,42.833 37.668 C 42.833 37.591,42.539 37.202,42.178 36.805 C 41.818 36.408,41.368 35.912,41.178 35.702 C 40.989 35.493,40.833 35.255,40.833 35.173 C 40.833 35.091,40.658 34.886,40.443 34.718 C 40.229 34.549,40.023 34.324,39.985 34.218 C 39.626 33.203,35.784 29.667,35.041 29.667 C 34.940 29.667,34.758 29.569,34.637 29.450 C 34.351 29.168,33.088 28.667,32.663 28.667 C 32.482 28.667,32.333 28.601,32.333 28.520 C 32.333 28.109,28.805 27.907,26.583 28.191 M312.208 28.199 C 311.727 28.287,311.333 28.418,311.333 28.490 C 311.333 28.562,310.977 28.757,310.542 28.922 C 310.106 29.087,309.652 29.360,309.532 29.528 C 309.412 29.696,309.241 29.833,309.152 29.833 C 308.905 29.833,307.950 30.853,307.667 31.418 C 307.529 31.692,307.338 32.000,307.242 32.103 C 307.146 32.205,306.962 32.618,306.833 33.020 C 306.703 33.421,306.519 33.804,306.424 33.869 C 306.174 34.040,306.191 39.044,306.443 39.349 C 306.549 39.478,306.751 40.026,306.892 40.568 C 307.033 41.110,307.213 41.597,307.292 41.651 C 307.371 41.706,307.538 42.012,307.663 42.333 C 307.789 42.654,308.028 43.051,308.196 43.215 C 308.363 43.379,308.500 43.618,308.500 43.747 C 308.500 43.876,308.638 44.079,308.807 44.199 C 308.976 44.319,309.145 44.500,309.182 44.602 C 309.370 45.115,311.036 46.838,320.296 56.103 L 330.342 66.155 320.671 75.815 C 315.352 81.127,311.000 85.525,311.000 85.587 C 311.000 85.649,310.644 86.067,310.208 86.516 C 309.108 87.651,308.924 87.875,308.565 88.516 C 308.392 88.824,308.168 89.166,308.068 89.274 C 307.968 89.383,307.784 89.722,307.661 90.027 C 307.537 90.333,307.371 90.628,307.292 90.682 C 307.213 90.736,307.033 91.224,306.892 91.765 C 306.750 92.307,306.548 92.804,306.442 92.869 C 306.189 93.025,306.172 98.292,306.424 98.464 C 306.519 98.530,306.703 98.912,306.833 99.314 C 306.962 99.715,307.146 100.129,307.242 100.233 C 307.338 100.338,307.550 100.661,307.713 100.953 C 308.093 101.633,308.871 102.410,309.550 102.787 C 309.843 102.950,310.136 103.164,310.200 103.262 C 310.264 103.361,310.639 103.545,311.034 103.672 C 311.428 103.799,311.804 103.981,311.869 104.076 C 312.035 104.319,317.472 104.312,317.631 104.068 C 317.696 103.968,318.256 103.751,318.875 103.585 C 319.494 103.419,320.000 103.226,320.000 103.155 C 320.000 103.084,320.262 102.939,320.582 102.834 C 320.902 102.728,321.221 102.553,321.290 102.446 C 321.360 102.338,321.642 102.139,321.917 102.004 C 322.458 101.739,322.669 101.584,323.383 100.928 C 323.639 100.693,323.894 100.500,323.950 100.500 C 324.052 100.500,325.987 98.587,337.810 86.792 C 341.371 83.240,344.343 80.333,344.415 80.333 C 344.531 80.333,352.660 88.380,360.957 96.708 C 362.578 98.335,363.963 99.667,364.034 99.667 C 364.105 99.667,364.481 100.004,364.869 100.417 C 365.257 100.829,365.668 101.167,365.782 101.167 C 365.895 101.167,366.069 101.317,366.167 101.500 C 366.265 101.683,366.441 101.833,366.558 101.833 C 366.675 101.833,366.916 101.967,367.094 102.130 C 367.271 102.294,367.717 102.567,368.083 102.738 C 368.450 102.909,368.787 103.098,368.833 103.158 C 368.934 103.289,370.617 103.833,370.922 103.833 C 371.041 103.833,371.170 103.927,371.208 104.042 C 371.298 104.310,376.781 104.343,376.964 104.076 C 377.030 103.981,377.417 103.795,377.826 103.663 C 378.234 103.532,378.682 103.291,378.821 103.129 C 378.960 102.966,379.151 102.832,379.245 102.830 C 379.474 102.825,381.333 100.931,381.333 100.703 C 381.333 100.604,381.439 100.419,381.567 100.290 C 381.814 100.043,382.333 98.657,382.333 98.244 C 382.333 98.110,382.408 98.000,382.500 98.000 C 382.695 98.000,382.736 93.558,382.542 93.472 C 382.473 93.442,382.283 92.895,382.121 92.257 C 381.958 91.619,381.758 91.057,381.677 91.007 C 381.596 90.957,381.397 90.578,381.235 90.166 C 381.073 89.754,380.889 89.379,380.826 89.333 C 380.764 89.287,380.588 89.006,380.436 88.708 C 380.283 88.410,380.085 88.167,379.996 88.167 C 379.906 88.167,379.833 88.073,379.832 87.958 C 379.830 87.605,379.061 86.808,368.610 76.325 L 358.471 66.155 368.735 55.883 C 374.381 50.234,379.000 45.542,379.000 45.455 C 379.000 45.369,379.188 45.150,379.417 44.970 C 379.646 44.790,379.833 44.535,379.833 44.405 C 379.833 44.274,379.905 44.167,379.992 44.167 C 380.080 44.167,380.276 43.904,380.428 43.583 C 380.580 43.262,380.765 43.000,380.839 43.000 C 380.912 43.000,381.101 42.662,381.259 42.250 C 381.416 41.838,381.592 41.500,381.649 41.500 C 381.782 41.500,382.126 40.398,382.266 39.518 C 382.327 39.142,382.441 38.833,382.521 38.833 C 382.601 38.833,382.667 37.896,382.667 36.750 C 382.667 35.604,382.605 34.667,382.531 34.667 C 382.456 34.667,382.296 34.173,382.177 33.571 C 382.057 32.968,381.834 32.349,381.683 32.196 C 381.531 32.042,381.296 31.696,381.162 31.427 C 380.923 30.950,379.706 29.667,379.492 29.667 C 379.433 29.667,379.167 29.479,378.901 29.250 C 378.635 29.021,378.173 28.788,377.875 28.731 C 377.577 28.675,377.333 28.569,377.333 28.495 C 377.333 27.878,371.067 27.876,370.667 28.494 C 370.621 28.565,370.152 28.747,369.625 28.899 C 369.098 29.051,368.667 29.237,368.667 29.311 C 368.667 29.386,368.363 29.547,367.992 29.669 C 367.621 29.792,367.264 29.980,367.200 30.088 C 367.136 30.196,366.896 30.382,366.667 30.502 C 366.032 30.832,365.806 31.045,360.257 36.539 C 357.411 39.356,354.232 42.504,353.192 43.533 C 352.152 44.563,351.158 45.586,350.984 45.808 C 350.809 46.030,350.667 46.149,350.667 46.073 C 350.667 45.997,350.479 46.189,350.250 46.500 C 350.021 46.811,349.833 46.998,349.833 46.917 C 349.833 46.835,349.646 47.023,349.417 47.333 C 349.188 47.644,349.000 47.831,349.000 47.750 C 349.000 47.669,348.813 47.856,348.583 48.167 C 348.354 48.477,348.167 48.686,348.167 48.632 C 348.167 48.577,347.473 49.231,346.625 50.087 C 344.278 52.454,345.725 53.396,334.491 42.188 C 329.157 36.866,324.595 32.382,324.354 32.225 C 324.114 32.067,323.780 31.765,323.613 31.552 C 323.446 31.340,323.220 31.167,323.111 31.167 C 323.003 31.167,322.820 31.017,322.705 30.833 C 322.591 30.650,322.389 30.500,322.257 30.500 C 322.125 30.500,321.957 30.405,321.883 30.289 C 321.810 30.173,321.432 29.929,321.044 29.747 C 320.655 29.565,320.336 29.364,320.335 29.300 C 320.334 29.236,319.883 29.058,319.333 28.903 C 318.783 28.749,318.333 28.567,318.333 28.498 C 318.333 28.097,313.944 27.883,312.208 28.199 M228.667 28.500 C 228.667 28.592,228.460 28.668,228.208 28.669 C 227.640 28.671,225.981 29.103,225.848 29.284 C 225.794 29.357,225.468 29.560,225.124 29.735 C 224.780 29.910,224.535 30.091,224.580 30.136 C 224.625 30.181,224.424 30.394,224.132 30.609 C 223.840 30.824,223.654 31.000,223.718 31.000 C 223.781 31.000,223.683 31.150,223.500 31.333 C 223.317 31.517,223.167 31.779,223.167 31.917 C 223.167 32.054,223.087 32.167,222.990 32.167 C 222.893 32.167,222.860 32.242,222.917 32.333 C 222.973 32.425,222.949 32.500,222.863 32.500 C 222.276 32.500,222.262 33.166,222.171 65.375 C 222.123 82.677,222.131 96.833,222.189 96.833 C 222.248 96.833,222.346 97.170,222.408 97.581 C 222.469 97.993,222.633 98.442,222.771 98.580 C 222.908 98.718,222.975 98.906,222.917 98.999 C 222.860 99.091,222.888 99.167,222.979 99.167 C 223.070 99.167,223.197 99.335,223.261 99.542 C 223.439 100.117,225.100 101.643,225.884 101.952 C 226.269 102.103,226.625 102.287,226.675 102.361 C 226.725 102.435,227.550 102.627,228.508 102.788 C 229.466 102.949,230.275 103.138,230.306 103.207 C 230.391 103.402,234.333 103.362,234.333 103.167 C 234.333 103.075,234.572 103.000,234.864 103.000 C 235.478 103.000,237.543 102.512,237.667 102.337 C 237.713 102.272,238.106 102.085,238.542 101.920 C 238.977 101.756,239.333 101.575,239.333 101.518 C 239.333 101.461,239.550 101.319,239.814 101.202 C 240.079 101.085,240.448 100.860,240.635 100.703 C 240.822 100.545,241.218 100.229,241.516 100.000 C 242.390 99.327,245.833 95.774,245.833 95.545 C 245.833 95.474,246.054 95.207,246.324 94.953 C 246.593 94.698,246.857 94.361,246.911 94.203 C 246.964 94.046,247.266 93.729,247.582 93.500 C 247.899 93.271,248.160 93.008,248.163 92.917 C 248.168 92.745,248.991 91.744,249.743 90.994 C 249.976 90.761,250.167 90.513,250.167 90.441 C 250.167 90.314,250.325 90.128,251.659 88.688 C 252.030 88.288,252.334 87.913,252.334 87.855 C 252.335 87.736,253.269 86.633,253.910 85.994 C 254.143 85.761,254.333 85.513,254.333 85.441 C 254.333 85.314,254.491 85.128,255.825 83.688 C 256.196 83.288,256.500 82.913,256.501 82.855 C 256.502 82.736,257.436 81.633,258.076 80.994 C 258.309 80.761,258.500 80.513,258.500 80.441 C 258.500 80.314,258.658 80.128,259.992 78.688 C 260.363 78.288,260.667 77.913,260.667 77.855 C 260.668 77.736,261.602 76.633,262.243 75.994 C 262.476 75.761,262.667 75.513,262.667 75.441 C 262.667 75.314,262.825 75.128,264.159 73.688 C 264.530 73.288,264.834 72.913,264.834 72.855 C 264.835 72.736,265.769 71.633,266.410 70.994 C 266.643 70.761,266.833 70.513,266.833 70.441 C 266.833 70.314,266.991 70.128,268.325 68.688 C 268.696 68.288,269.000 67.913,269.001 67.855 C 269.002 67.754,269.747 66.878,270.592 65.986 C 270.816 65.749,271.000 65.498,271.000 65.428 C 271.000 65.358,271.206 65.090,271.458 64.834 C 272.216 64.062,273.167 62.975,273.167 62.880 C 273.167 62.790,274.013 61.785,274.763 60.986 C 274.985 60.749,275.167 60.498,275.167 60.428 C 275.167 60.358,275.373 60.097,275.625 59.849 C 275.877 59.601,276.271 59.148,276.500 58.841 C 276.729 58.535,277.198 57.987,277.542 57.622 C 277.885 57.258,278.167 56.913,278.167 56.855 C 278.168 56.736,279.102 55.633,279.743 54.994 C 279.976 54.761,280.167 54.484,280.167 54.378 C 280.167 54.272,280.299 54.088,280.461 53.968 C 280.623 53.848,280.893 53.536,281.060 53.274 C 281.238 52.996,281.426 52.859,281.513 52.946 C 281.597 53.030,281.680 62.750,281.705 75.589 L 281.750 98.083 282.277 99.038 C 282.777 99.943,284.477 101.833,284.791 101.833 C 284.871 101.833,285.088 101.974,285.272 102.145 C 285.621 102.471,287.446 103.000,288.219 103.000 C 288.465 103.000,288.667 103.075,288.667 103.167 C 288.667 103.265,289.278 103.333,290.167 103.333 C 291.056 103.333,291.667 103.265,291.667 103.167 C 291.667 103.075,291.896 103.000,292.175 103.000 C 292.884 103.000,295.000 102.503,295.000 102.336 C 295.000 102.261,295.232 102.118,295.516 102.019 C 296.073 101.825,297.827 100.209,297.831 99.887 C 297.832 99.779,297.945 99.579,298.082 99.442 C 298.456 99.068,298.833 97.406,298.833 96.132 C 298.833 95.488,298.905 95.000,299.000 95.000 C 299.110 95.000,299.167 85.250,299.167 66.083 C 299.167 46.917,299.110 37.167,299.000 37.167 C 298.908 37.167,298.832 36.848,298.831 36.458 C 298.828 35.599,298.429 33.830,298.206 33.687 C 298.117 33.630,297.991 33.411,297.925 33.199 C 297.766 32.691,296.058 31.003,295.282 30.587 C 294.944 30.406,294.667 30.210,294.667 30.151 C 294.667 30.093,294.310 29.911,293.875 29.746 C 293.440 29.582,293.046 29.391,293.000 29.322 C 292.887 29.154,290.979 28.667,290.434 28.667 C 290.195 28.667,290.000 28.592,290.000 28.500 C 290.000 28.289,286.772 28.276,286.373 28.485 C 286.214 28.569,285.558 28.723,284.917 28.829 C 283.818 29.011,281.667 29.898,281.667 30.170 C 281.667 30.238,281.535 30.339,281.375 30.392 C 280.769 30.596,278.109 33.085,277.520 34.000 C 277.372 34.229,277.083 34.553,276.876 34.720 C 276.669 34.887,276.500 35.087,276.500 35.163 C 276.500 35.301,275.680 36.263,274.792 37.167 C 274.540 37.424,274.333 37.712,274.333 37.807 C 274.333 37.903,274.196 38.079,274.028 38.199 C 273.861 38.319,273.580 38.642,273.404 38.917 C 273.229 39.192,272.916 39.553,272.709 39.720 C 272.502 39.887,272.333 40.085,272.333 40.160 C 272.333 40.284,271.473 41.262,270.415 42.340 C 270.187 42.572,270.000 42.821,270.000 42.892 C 270.000 43.019,269.842 43.205,268.508 44.645 C 268.137 45.046,267.833 45.429,267.833 45.497 C 267.833 45.564,267.572 45.874,267.252 46.185 C 266.932 46.496,266.669 46.814,266.668 46.891 C 266.667 46.969,266.460 47.243,266.208 47.500 C 265.320 48.404,264.500 49.366,264.500 49.503 C 264.500 49.580,264.331 49.779,264.124 49.946 C 263.917 50.113,263.604 50.475,263.427 50.750 C 263.250 51.025,262.931 51.387,262.719 51.554 C 262.507 51.721,262.333 51.921,262.333 51.998 C 262.333 52.076,262.038 52.464,261.676 52.861 C 261.315 53.258,260.827 53.808,260.592 54.083 C 260.356 54.358,259.902 54.883,259.583 55.250 C 259.263 55.617,259.001 55.964,259.001 56.022 C 259.000 56.119,258.349 56.855,257.161 58.101 C 256.889 58.386,256.667 58.672,256.667 58.737 C 256.667 58.853,256.499 59.049,255.175 60.478 C 254.804 60.879,254.500 61.262,254.500 61.330 C 254.500 61.398,254.238 61.707,253.918 62.018 C 253.599 62.329,253.336 62.648,253.335 62.728 C 253.334 62.807,253.141 63.069,252.906 63.311 C 251.629 64.625,251.000 65.342,251.000 65.486 C 251.000 65.575,250.863 65.746,250.695 65.866 C 250.527 65.985,250.257 66.289,250.093 66.540 C 249.930 66.792,249.524 67.280,249.190 67.625 C 248.856 67.971,248.358 68.542,248.083 68.895 C 247.808 69.247,247.377 69.732,247.125 69.972 C 246.873 70.211,246.667 70.475,246.667 70.557 C 246.667 70.639,246.367 70.997,246.000 71.353 C 245.633 71.708,245.333 72.044,245.333 72.099 C 245.333 72.153,245.183 72.388,245.000 72.621 C 244.817 72.854,244.666 72.979,244.666 72.897 C 244.666 72.816,244.524 72.982,244.351 73.266 C 244.178 73.550,243.859 73.972,243.643 74.203 C 243.427 74.434,242.950 74.978,242.583 75.410 C 242.217 75.843,241.710 76.434,241.457 76.723 C 241.204 77.013,240.736 77.550,240.416 77.917 C 240.097 78.283,239.835 78.659,239.834 78.752 C 239.834 78.844,239.685 79.012,239.504 79.125 C 239.177 79.330,239.174 79.191,239.129 56.659 C 239.098 41.173,239.028 33.950,238.910 33.869 C 238.814 33.804,238.633 33.412,238.506 33.000 C 238.380 32.587,238.196 32.173,238.097 32.079 C 237.853 31.849,237.511 31.310,237.398 30.979 C 237.347 30.829,237.124 30.625,236.903 30.524 C 236.681 30.423,236.500 30.281,236.500 30.208 C 236.500 30.135,236.219 29.928,235.875 29.747 C 235.531 29.566,235.156 29.328,235.040 29.219 C 234.925 29.110,234.269 28.927,233.582 28.811 C 232.895 28.696,232.333 28.541,232.333 28.467 C 232.333 28.394,231.508 28.333,230.500 28.333 C 229.389 28.333,228.667 28.399,228.667 28.500 M120.371 28.785 C 120.162 28.825,119.864 29.058,119.708 29.304 C 119.552 29.549,119.342 29.803,119.242 29.867 C 119.141 29.931,118.959 30.287,118.836 30.659 C 118.714 31.030,118.561 31.333,118.496 31.333 C 118.431 31.333,118.250 31.671,118.092 32.083 C 117.935 32.496,117.747 32.833,117.676 32.833 C 117.604 32.833,117.409 33.190,117.243 33.625 C 117.077 34.060,116.842 34.516,116.720 34.637 C 116.599 34.758,116.500 34.950,116.500 35.064 C 116.500 35.177,116.363 35.418,116.195 35.598 C 116.027 35.779,115.754 36.280,115.589 36.713 C 115.423 37.146,115.229 37.500,115.158 37.500 C 115.086 37.500,114.899 37.837,114.741 38.250 C 114.584 38.662,114.402 39.000,114.337 39.000 C 114.273 39.000,114.118 39.308,113.994 39.684 C 113.870 40.061,113.679 40.403,113.569 40.445 C 113.460 40.487,113.237 40.871,113.074 41.298 C 112.911 41.724,112.640 42.221,112.472 42.402 C 112.304 42.582,112.167 42.823,112.167 42.936 C 112.167 43.050,112.068 43.242,111.946 43.363 C 111.825 43.484,111.590 43.940,111.424 44.375 C 111.257 44.810,111.065 45.167,110.995 45.167 C 110.926 45.167,110.742 45.485,110.586 45.875 C 110.431 46.264,110.252 46.620,110.189 46.666 C 110.126 46.712,109.934 47.069,109.762 47.458 C 109.590 47.848,109.393 48.167,109.325 48.167 C 109.256 48.167,109.065 48.542,108.900 49.000 C 108.736 49.458,108.552 49.833,108.492 49.833 C 108.433 49.833,108.243 50.152,108.070 50.542 C 107.897 50.931,107.661 51.349,107.545 51.470 C 107.428 51.591,107.333 51.798,107.333 51.929 C 107.333 52.060,107.193 52.307,107.022 52.478 C 106.851 52.649,106.579 53.136,106.416 53.561 C 106.254 53.986,106.072 54.333,106.012 54.333 C 105.951 54.333,105.762 54.671,105.592 55.083 C 105.422 55.496,105.231 55.833,105.168 55.833 C 105.105 55.833,104.952 56.141,104.827 56.518 C 104.703 56.894,104.509 57.238,104.396 57.281 C 104.283 57.324,104.058 57.729,103.896 58.180 C 103.734 58.631,103.552 59.000,103.492 59.000 C 103.433 59.000,103.243 59.319,103.070 59.708 C 102.897 60.098,102.661 60.516,102.545 60.637 C 102.428 60.758,102.333 60.964,102.333 61.095 C 102.333 61.226,102.197 61.470,102.030 61.636 C 101.863 61.803,101.594 62.272,101.432 62.678 C 101.269 63.084,101.087 63.453,101.027 63.500 C 100.211 64.122,100.196 67.833,101.009 67.833 C 101.080 67.833,101.268 68.171,101.426 68.583 C 101.583 68.996,101.758 69.334,101.814 69.335 C 101.871 69.336,102.066 69.655,102.247 70.044 C 102.429 70.432,102.625 70.787,102.681 70.833 C 102.738 70.879,102.924 71.217,103.094 71.583 C 103.265 71.950,103.501 72.349,103.619 72.470 C 103.737 72.591,103.833 72.783,103.833 72.897 C 103.833 73.011,103.967 73.249,104.131 73.427 C 104.295 73.605,104.532 74.012,104.657 74.333 C 104.782 74.654,104.973 74.992,105.081 75.083 C 105.188 75.175,105.410 75.601,105.573 76.031 C 105.737 76.460,105.960 76.846,106.069 76.888 C 106.179 76.930,106.370 77.273,106.494 77.649 C 106.618 78.025,106.772 78.333,106.835 78.333 C 106.898 78.333,107.091 78.652,107.263 79.042 C 107.436 79.431,107.673 79.849,107.789 79.970 C 107.905 80.091,108.000 80.283,108.000 80.397 C 108.000 80.511,108.134 80.749,108.298 80.927 C 108.462 81.105,108.698 81.512,108.824 81.833 C 108.949 82.154,109.140 82.492,109.247 82.583 C 109.355 82.675,109.577 83.101,109.740 83.531 C 109.903 83.960,110.127 84.346,110.236 84.388 C 110.345 84.430,110.537 84.773,110.661 85.149 C 110.785 85.525,110.938 85.833,111.001 85.833 C 111.064 85.833,111.257 86.152,111.430 86.542 C 111.603 86.931,111.839 87.349,111.955 87.470 C 112.072 87.591,112.167 87.783,112.167 87.897 C 112.167 88.011,112.301 88.249,112.465 88.427 C 112.628 88.605,112.865 89.013,112.990 89.333 C 113.116 89.654,113.305 89.992,113.410 90.083 C 113.516 90.175,113.735 90.583,113.896 90.990 C 114.057 91.397,114.285 91.809,114.402 91.907 C 114.519 92.004,114.718 92.346,114.843 92.667 C 114.968 92.987,115.205 93.395,115.369 93.573 C 115.533 93.751,115.667 93.989,115.667 94.103 C 115.667 94.217,115.762 94.409,115.878 94.530 C 115.994 94.651,116.231 95.069,116.403 95.458 C 116.576 95.848,116.769 96.167,116.832 96.167 C 116.895 96.167,117.048 96.475,117.173 96.851 C 117.297 97.227,117.488 97.570,117.597 97.612 C 117.707 97.654,117.930 98.040,118.093 98.469 C 118.256 98.899,118.478 99.325,118.586 99.417 C 118.694 99.508,118.884 99.846,119.010 100.167 C 119.135 100.487,119.372 100.895,119.535 101.073 C 119.699 101.251,119.833 101.489,119.833 101.603 C 119.833 101.717,119.932 101.909,120.052 102.030 C 120.172 102.151,120.373 102.484,120.499 102.769 C 120.909 103.698,120.114 103.667,142.945 103.667 C 164.290 103.667,165.167 103.644,165.167 103.085 C 165.167 102.966,165.261 102.833,165.376 102.789 C 165.491 102.745,165.688 102.423,165.814 102.074 C 165.940 101.725,166.184 101.289,166.355 101.105 C 166.526 100.921,166.667 100.677,166.667 100.564 C 166.667 100.450,166.764 100.258,166.882 100.137 C 167.000 100.016,167.200 99.654,167.324 99.333 C 167.449 99.013,167.640 98.675,167.747 98.583 C 167.855 98.492,168.079 98.060,168.244 97.625 C 168.410 97.190,168.591 96.833,168.648 96.832 C 168.704 96.831,168.898 96.493,169.079 96.082 C 169.260 95.670,169.456 95.333,169.515 95.333 C 169.573 95.333,169.754 94.986,169.916 94.561 C 170.079 94.136,170.351 93.649,170.522 93.478 C 170.693 93.307,170.833 93.060,170.833 92.929 C 170.833 92.798,170.928 92.591,171.045 92.470 C 171.161 92.349,171.397 91.931,171.570 91.542 C 171.743 91.152,171.933 90.833,171.992 90.833 C 172.052 90.833,172.236 90.458,172.400 90.000 C 172.565 89.542,172.751 89.167,172.813 89.167 C 172.875 89.167,173.073 88.830,173.254 88.418 C 173.435 88.007,173.629 87.669,173.686 87.668 C 173.742 87.667,173.917 87.329,174.074 86.917 C 174.232 86.504,174.420 86.167,174.491 86.167 C 174.563 86.167,174.757 85.813,174.922 85.380 C 175.087 84.947,175.360 84.445,175.528 84.265 C 175.696 84.085,175.833 83.844,175.833 83.730 C 175.833 83.617,175.932 83.425,176.054 83.303 C 176.175 83.182,176.410 82.727,176.576 82.292 C 176.743 81.856,176.937 81.500,177.009 81.500 C 177.080 81.500,177.268 81.163,177.426 80.750 C 177.583 80.338,177.758 79.999,177.814 79.998 C 177.871 79.998,178.065 79.660,178.246 79.248 C 178.427 78.837,178.623 78.500,178.681 78.500 C 178.740 78.500,178.924 78.144,179.089 77.708 C 179.255 77.273,179.478 76.842,179.586 76.750 C 179.694 76.658,179.884 76.321,180.009 76.000 C 180.134 75.679,180.333 75.318,180.451 75.196 C 180.570 75.075,180.667 74.883,180.667 74.770 C 180.667 74.656,180.804 74.415,180.972 74.235 C 181.140 74.055,181.413 73.553,181.578 73.120 C 181.743 72.687,181.937 72.333,182.009 72.333 C 182.080 72.333,182.268 71.996,182.426 71.583 C 182.583 71.171,182.765 70.833,182.829 70.833 C 182.894 70.833,183.048 70.525,183.173 70.149 C 183.297 69.773,183.488 69.430,183.597 69.388 C 183.707 69.346,183.929 68.960,184.091 68.531 C 184.253 68.101,184.440 67.712,184.507 67.667 C 184.573 67.621,185.016 66.833,185.491 65.917 C 185.966 65.000,186.425 64.179,186.511 64.092 C 186.597 64.005,186.667 63.809,186.667 63.657 C 186.667 63.124,137.543 63.104,137.176 63.636 C 137.125 63.710,136.652 63.865,136.125 63.981 C 135.598 64.096,135.073 64.279,134.958 64.387 C 134.844 64.496,134.469 64.732,134.125 64.913 C 133.781 65.094,133.500 65.298,133.500 65.367 C 133.500 65.435,133.275 65.608,133.000 65.750 C 132.725 65.892,132.500 66.115,132.500 66.245 C 132.500 66.375,132.364 66.579,132.198 66.699 C 132.032 66.819,131.763 67.254,131.600 67.666 C 131.436 68.078,131.216 68.469,131.110 68.535 C 130.857 68.691,130.839 73.292,131.090 73.464 C 131.186 73.530,131.369 73.910,131.498 74.309 C 131.626 74.709,131.830 75.073,131.949 75.119 C 132.069 75.165,132.167 75.288,132.168 75.393 C 132.169 75.631,133.549 77.000,133.788 77.000 C 133.885 77.000,134.000 77.094,134.045 77.209 C 134.089 77.324,134.415 77.522,134.771 77.649 C 135.126 77.776,135.459 77.946,135.511 78.026 C 135.867 78.572,137.839 78.661,149.729 78.664 L 161.542 78.667 161.443 79.161 C 161.388 79.434,161.191 79.809,161.005 79.995 C 160.819 80.181,160.667 80.442,160.667 80.575 C 160.667 80.708,160.572 80.877,160.456 80.950 C 160.340 81.023,160.096 81.401,159.914 81.790 C 159.732 82.178,159.538 82.497,159.484 82.498 C 159.429 82.499,159.241 82.818,159.067 83.207 C 158.893 83.596,158.619 84.046,158.458 84.207 C 158.298 84.368,158.167 84.609,158.167 84.742 C 158.167 84.875,158.072 85.043,157.956 85.117 C 157.840 85.190,157.596 85.568,157.414 85.956 C 157.232 86.345,157.038 86.664,156.984 86.665 C 156.929 86.666,156.741 86.985,156.567 87.374 C 156.393 87.762,156.119 88.212,155.958 88.374 C 155.798 88.535,155.667 88.745,155.667 88.842 C 155.667 88.938,155.415 89.275,155.108 89.592 L 154.550 90.167 143.199 90.167 C 130.848 90.167,131.236 90.197,130.724 89.189 C 130.555 88.856,130.334 88.508,130.234 88.417 C 130.134 88.325,129.949 87.987,129.824 87.667 C 129.700 87.346,129.500 86.984,129.382 86.863 C 129.264 86.742,129.167 86.550,129.167 86.436 C 129.167 86.323,129.033 86.084,128.869 85.906 C 128.705 85.729,128.468 85.321,128.343 85.000 C 128.218 84.679,128.027 84.342,127.919 84.250 C 127.812 84.158,127.590 83.732,127.427 83.302 C 127.263 82.873,127.040 82.487,126.931 82.445 C 126.821 82.403,126.630 82.061,126.506 81.684 C 126.382 81.308,126.228 81.000,126.165 81.000 C 126.102 81.000,125.911 80.663,125.741 80.250 C 125.571 79.838,125.378 79.500,125.312 79.500 C 125.246 79.500,125.106 79.238,125.000 78.918 C 124.895 78.598,124.713 78.279,124.597 78.210 C 124.480 78.140,124.251 77.727,124.087 77.292 C 123.922 76.856,123.729 76.500,123.658 76.500 C 123.586 76.500,123.399 76.162,123.241 75.750 C 123.084 75.337,122.897 75.000,122.827 75.000 C 122.757 75.000,122.561 74.663,122.392 74.251 C 122.222 73.838,122.038 73.501,121.983 73.501 C 121.929 73.500,121.746 73.167,121.578 72.759 C 121.410 72.351,121.217 72.052,121.150 72.094 C 121.082 72.135,120.976 71.936,120.913 71.651 C 120.851 71.366,120.671 71.004,120.513 70.847 C 120.356 70.689,120.095 70.228,119.933 69.822 C 119.771 69.416,119.540 68.971,119.419 68.833 C 119.299 68.696,119.077 68.286,118.927 67.923 C 118.777 67.559,118.570 67.210,118.468 67.147 C 118.247 67.011,118.245 65.993,118.465 65.850 C 118.549 65.795,118.756 65.450,118.925 65.083 C 119.094 64.717,119.286 64.379,119.351 64.333 C 119.416 64.287,119.600 63.912,119.759 63.500 C 119.918 63.087,120.144 62.670,120.263 62.573 C 120.381 62.476,120.609 62.063,120.771 61.657 C 120.932 61.250,121.151 60.842,121.256 60.750 C 121.362 60.658,121.551 60.321,121.676 60.000 C 121.800 59.679,122.000 59.318,122.118 59.196 C 122.236 59.075,122.333 58.883,122.333 58.770 C 122.333 58.656,122.471 58.415,122.639 58.235 C 122.807 58.055,123.079 57.553,123.245 57.120 C 123.410 56.687,123.604 56.333,123.676 56.333 C 123.747 56.333,123.935 55.996,124.092 55.583 C 124.250 55.171,124.425 54.833,124.481 54.832 C 124.537 54.831,124.731 54.493,124.912 54.082 C 125.093 53.670,125.289 53.333,125.348 53.333 C 125.407 53.333,125.590 52.977,125.756 52.542 C 125.921 52.106,126.145 51.675,126.253 51.583 C 126.360 51.492,126.551 51.154,126.676 50.833 C 126.800 50.512,127.000 50.151,127.118 50.030 C 127.236 49.909,127.333 49.702,127.333 49.571 C 127.333 49.440,127.470 49.197,127.636 49.030 C 127.803 48.863,128.073 48.395,128.235 47.989 C 128.397 47.583,128.584 47.213,128.649 47.167 C 128.714 47.121,128.906 46.783,129.075 46.417 C 129.244 46.050,129.428 45.712,129.483 45.667 C 129.538 45.621,129.718 45.318,129.882 44.994 C 130.460 43.854,129.669 43.922,143.000 43.868 C 155.772 43.817,156.319 43.844,156.698 44.565 C 156.800 44.759,156.929 44.954,156.985 45.000 C 157.041 45.046,157.236 45.383,157.418 45.750 C 157.601 46.117,157.844 46.477,157.958 46.550 C 158.073 46.623,158.167 46.778,158.167 46.894 C 158.167 47.009,158.304 47.251,158.471 47.431 C 158.639 47.611,158.916 48.075,159.087 48.462 C 159.258 48.850,159.455 49.167,159.524 49.167 C 159.594 49.167,159.783 49.448,159.945 49.792 C 160.107 50.135,160.373 50.562,160.536 50.740 C 160.700 50.917,160.833 51.157,160.833 51.273 C 160.833 51.389,160.927 51.543,161.042 51.617 C 161.156 51.690,161.399 52.050,161.582 52.417 C 161.764 52.783,161.960 53.121,162.017 53.167 C 162.074 53.212,162.245 53.494,162.398 53.792 C 162.550 54.090,162.730 54.334,162.796 54.334 C 162.862 54.334,163.053 54.666,163.219 55.070 C 163.386 55.475,163.629 55.847,163.761 55.898 C 163.892 55.948,164.000 56.096,164.000 56.227 C 164.000 56.358,164.119 56.510,164.264 56.566 C 164.733 56.746,182.167 56.682,182.167 56.500 C 182.167 56.408,182.092 56.333,182.000 56.333 C 181.908 56.333,181.833 56.246,181.833 56.139 C 181.833 55.849,181.287 54.667,181.153 54.667 C 181.089 54.667,180.916 54.367,180.769 54.000 C 180.623 53.633,180.442 53.333,180.367 53.333 C 180.292 53.333,180.091 53.016,179.920 52.629 C 179.749 52.241,179.472 51.777,179.305 51.597 C 179.137 51.418,179.000 51.177,179.000 51.064 C 179.000 50.950,178.885 50.742,178.744 50.601 C 178.603 50.460,178.377 50.080,178.242 49.756 C 178.106 49.432,177.933 49.167,177.856 49.167 C 177.780 49.167,177.579 48.833,177.411 48.426 C 177.243 48.018,177.058 47.714,177.000 47.750 C 176.942 47.786,176.757 47.482,176.589 47.074 C 176.421 46.667,176.228 46.333,176.160 46.333 C 176.092 46.333,175.916 46.033,175.769 45.667 C 175.623 45.300,175.432 45.000,175.346 45.000 C 175.260 45.000,175.136 44.831,175.072 44.625 C 175.007 44.419,174.750 43.950,174.500 43.583 C 174.250 43.217,173.993 42.748,173.928 42.542 C 173.864 42.335,173.749 42.167,173.674 42.167 C 173.598 42.167,173.416 41.867,173.269 41.500 C 173.123 41.133,172.942 40.833,172.867 40.833 C 172.792 40.833,172.598 40.533,172.437 40.167 C 172.275 39.800,172.088 39.500,172.022 39.500 C 171.956 39.500,171.762 39.162,171.592 38.750 C 171.422 38.337,171.220 38.000,171.144 38.000 C 171.067 38.000,170.894 37.735,170.758 37.411 C 170.623 37.087,170.397 36.706,170.256 36.566 C 170.115 36.425,170.000 36.217,170.000 36.103 C 170.000 35.989,169.863 35.749,169.695 35.569 C 169.528 35.389,169.251 34.925,169.080 34.538 C 168.909 34.150,168.710 33.833,168.637 33.833 C 168.564 33.833,168.394 33.568,168.258 33.244 C 168.123 32.920,167.897 32.540,167.756 32.399 C 167.615 32.258,167.500 32.050,167.500 31.936 C 167.500 31.823,167.366 31.584,167.203 31.406 C 167.039 31.229,166.766 30.783,166.596 30.417 C 166.425 30.050,166.184 29.690,166.059 29.617 C 165.935 29.543,165.833 29.378,165.833 29.250 C 165.833 29.121,165.552 28.938,165.208 28.842 C 164.599 28.673,121.242 28.618,120.371 28.785 M195.677 63.976 C 195.120 65.320,195.604 98.833,196.180 98.833 C 196.264 98.833,196.334 98.927,196.334 99.042 C 196.337 99.563,196.705 100.493,197.084 100.934 C 197.313 101.199,197.500 101.482,197.500 101.561 C 197.500 101.684,198.166 102.353,199.167 103.236 C 199.304 103.357,199.717 103.559,200.083 103.685 C 200.450 103.812,200.804 103.990,200.869 104.082 C 201.037 104.320,205.477 104.304,205.631 104.066 C 205.696 103.965,206.016 103.795,206.341 103.689 C 207.036 103.463,207.619 103.028,208.608 102.000 C 209.735 100.828,209.794 100.742,210.114 99.802 C 210.281 99.315,210.492 98.863,210.583 98.798 C 210.800 98.644,211.103 65.597,210.897 64.615 C 210.755 63.939,210.727 63.915,210.042 63.865 C 209.652 63.837,209.333 63.743,209.333 63.657 C 209.333 63.561,206.705 63.500,202.604 63.500 L 195.874 63.500 195.677 63.976 " stroke="none" fill="#0c944c" fill-rule="evenodd"></path><path id="path1" d="M222.082 65.583 C 222.082 82.725,222.101 89.713,222.125 81.112 C 222.149 72.511,222.149 58.486,222.125 49.945 C 222.101 41.404,222.082 48.442,222.082 65.583 " stroke="none" fill="#10944c" fill-rule="evenodd"></path><path id="path2" d="M222.082 65.583 C 222.082 82.725,222.101 89.713,222.125 81.112 C 222.149 72.511,222.149 58.486,222.125 49.945 C 222.101 41.404,222.082 48.442,222.082 65.583 " stroke="none" fill="#10944c" fill-rule="evenodd"></path><path id="path3" d="M222.082 65.583 C 222.082 82.725,222.101 89.713,222.125 81.112 C 222.149 72.511,222.149 58.486,222.125 49.945 C 222.101 41.404,222.082 48.442,222.082 65.583 " stroke="none" fill="#10944c" fill-rule="evenodd"></path><path id="path4" d="M222.082 65.583 C 222.082 82.725,222.101 89.713,222.125 81.112 C 222.149 72.511,222.149 58.486,222.125 49.945 C 222.101 41.404,222.082 48.442,222.082 65.583 " stroke="none" fill="#10944c" fill-rule="evenodd"></path></g></svg>